<svg version="1.1" id="Ebene_1" xmlns:x="ns_extend;" xmlns:i="ns_ai;" xmlns:graph="ns_graphs;" xmlns="http://www.w3.org/2000/svg" xmlns:xlink="http://www.w3.org/1999/xlink" x="0px" y="0px" viewBox="0 0 81.6 70.7" style="enable-background:new 0 0 81.6 70.7;" xml:space="preserve">
 <style type="text/css">
  .st0{fill:#FFFFFF;}
	.st1{clip-path:url(#SVGID_2_);fill:url(#SVGID_3_);}
	.st2{clip-path:url(#SVGID_5_);fill:url(#SVGID_6_);}
	.st3{clip-path:url(#SVGID_8_);fill:url(#SVGID_9_);}
	.st4{clip-path:url(#SVGID_11_);fill:url(#SVGID_12_);}
 </style>
 <metadata>
  <sfw xmlns="ns_sfw;">
   <slices>
   </slices>
   <sliceSourceBounds bottomLeftOrigin="true" height="70.7" width="81.6" x="288.1" y="-89.2">
   </sliceSourceBounds>
  </sfw>
 </metadata>
 <g>
  <g>
   <path class="st0" d="M62.4,70.4H40.8H19.3L0.4,37.7c0,0,0,0,0,0l0-0.1l0.6-1l21-36.3h0.2h0h37.6l21.5,37.3l-0.1,0.1c0,0,0,0,0,0
			l-8.4,14.5L62.5,70.1c0,0,0,0,0,0L62.4,70.4z M40.8,6c-0.1,0-0.2,0-0.3,0.1c-2.1,2.4-3.5,5-4,5.8l-9.4,16.3l-9.4,16.3
			c-0.5,0.8-2,3.4-3,6.4c0,0.1,0,0.2,0,0.3c0,0.1,0.1,0.1,0.2,0.2c3.1,0.6,6.1,0.6,7.1,0.6h18.8h18.8c1,0,3.9,0,7.1-0.6
			c0.1,0,0.2-0.1,0.2-0.2c0-0.1,0.1-0.2,0-0.3c-1.1-3-2.5-5.6-3-6.4l-9.4-16.3l-9.4-16.3c-1.3-2.3-2.6-4.2-4-5.8C41,6,40.9,6,40.8,6
			">
   </path>
   <g>
    <g>
     <defs>
      <path id="SVGID_1_" d="M51.7,0c-1.5,0-5.9,0-11,6.2c0.1,0.1,0.1,0.2,0.2,0.2c1.3-1.5,3-3.1,4.7-4.2c1.6-1.1,3.5-1.8,5.1-1.9
						c1.1-0.1,4.9-0.1,9.2-0.1c0,0,0,0,0,0L59.9,0c0,0,0,0,0,0L51.7,0L51.7,0z">
      </path>
     </defs>
     <clipPath id="SVGID_2_">
      <use href="#SVGID_1_" style="overflow:visible;">
      </use>
     </clipPath>
     <radialGradient id="SVGID_3_" cx="-260.1834" cy="-287.3444" r="2.5511" gradientTransform="matrix(24.9017 0 0 24.9017 6546.0845 7218.5132)" gradientUnits="userSpaceOnUse">
      <stop offset="0" style="stop-color:#FFDF4F">
      </stop>
      <stop offset="0.1374" style="stop-color:#FFD137">
      </stop>
      <stop offset="0.3217" style="stop-color:#FFC31A">
      </stop>
      <stop offset="0.44" style="stop-color:#FEBE10">
      </stop>
      <stop offset="0.6086" style="stop-color:#FCBA12">
      </stop>
      <stop offset="0.7543" style="stop-color:#F5AF15">
      </stop>
      <stop offset="0.8911" style="stop-color:#ED9F18">
      </stop>
      <stop offset="0.9" style="stop-color:#ED9D19">
      </stop>
      <stop offset="1" style="stop-color:#E0861A">
      </stop>
     </radialGradient>
     <rect x="40.7" y="0" class="st1" width="19.3" height="6.4">
     </rect>
    </g>
   </g>
   <g>
    <g>
     <defs>
      <path id="SVGID_4_" d="M21.7,0C21.7,0,21.7,0,21.7,0L5.7,27.8l-5,8.7l-0.6,1L0,37.6c0,0,0,0,0,0l15.3,26.4V64
						c-0.3-0.6-0.6-1.1-0.7-1.4c-0.6-1.4-1-3.4-0.9-5.4c0.3-5.1,3-10.2,4.3-12.5c3.2-5.6,9.4-16.3,9.4-16.3s6.2-10.7,9.4-16.3
						c1.4-2.4,4.4-7.2,8.7-10c1.6-1.1,3.5-1.7,5.1-1.9C51.8,0,55.6,0,59.9,0C59.9,0,21.7,0,21.7,0z">
      </path>
     </defs>
     <clipPath id="SVGID_5_">
      <use xlink:href="#SVGID_4_" style="overflow:visible;">
      </use>
     </clipPath>
     <radialGradient id="SVGID_6_" cx="-260.5775" cy="-288.9048" r="2.5323" gradientTransform="matrix(24.92 0 0 24.92 6544.1826 7199.5723)" gradientUnits="userSpaceOnUse">
      <stop offset="0" style="stop-color:#FFDF4F">
      </stop>
      <stop offset="0.1374" style="stop-color:#FFD137">
      </stop>
      <stop offset="0.3217" style="stop-color:#FFC31A">
      </stop>
      <stop offset="0.44" style="stop-color:#FEBE10">
      </stop>
      <stop offset="0.6086" style="stop-color:#FCBA12">
      </stop>
      <stop offset="0.7543" style="stop-color:#F5AF15">
      </stop>
      <stop offset="0.8911" style="stop-color:#ED9F18">
      </stop>
      <stop offset="0.9" style="stop-color:#ED9D19">
      </stop>
      <stop offset="1" style="stop-color:#E0861A">
      </stop>
     </radialGradient>
     <rect y="0" class="st2" width="59.9" height="64.1">
     </rect>
    </g>
   </g>
   <g>
    <g>
     <defs>
      <path id="SVGID_7_" d="M76.9,45.6c-0.9,1.3-2.5,2.6-4.2,3.5c-4.6,2.3-10.3,2.5-13,2.5H40.8H22c-2.7,0-8.5-0.2-13-2.5
						c-1.7-0.9-3.3-2.2-4.2-3.5c-0.6-0.8-2.1-3.4-3.9-6.5l3.8,6.6l14.4,25c0,0,0,0,0,0h43.4c0,0,0,0,0,0l18.9-32.7
						C79.4,41.6,77.6,44.7,76.9,45.6 M0.1,37.9c0.2,0.4,0.5,0.8,0.7,1.2L0.1,37.9z">
      </path>
     </defs>
     <clipPath id="SVGID_8_">
      <use xlink:href="#SVGID_7_" style="overflow:visible;">
      </use>
     </clipPath>
     <radialGradient id="SVGID_9_" cx="-261.6954" cy="-287.7842" r="2.5307" gradientTransform="matrix(24.9101 0 0 24.9101 6523.437 7214.5391)" gradientUnits="userSpaceOnUse">
      <stop offset="0" style="stop-color:#FFDF4F">
      </stop>
      <stop offset="0.1374" style="stop-color:#FFD137">
      </stop>
      <stop offset="0.3217" style="stop-color:#FFC31A">
      </stop>
      <stop offset="0.44" style="stop-color:#FEBE10">
      </stop>
      <stop offset="0.6086" style="stop-color:#FCBA12">
      </stop>
      <stop offset="0.7543" style="stop-color:#F5AF15">
      </stop>
      <stop offset="0.8911" style="stop-color:#ED9F18">
      </stop>
      <stop offset="0.9" style="stop-color:#ED9D19">
      </stop>
      <stop offset="1" style="stop-color:#E0861A">
      </stop>
     </radialGradient>
     <rect x="0.1" y="37.9" class="st3" width="81.3" height="32.9">
     </rect>
    </g>
   </g>
   <g>
    <g>
     <defs>
      <path id="SVGID_10_" d="M50.6,0.1c-1.6,0.2-3.5,0.9-5.1,1.9c-1.8,1.2-3.4,2.7-4.7,4.3c1.8,2.2,3.2,4.4,4,5.8
						c3.2,5.6,9.4,16.3,9.4,16.3s6.2,10.7,9.4,16.3c1.4,2.4,4.1,7.4,4.3,12.5c0.1,1.9-0.3,3.9-0.9,5.4c-0.4,1-2.2,4.1-4.2,7.6
						l18.8-32.6c0,0,0,0,0,0v0c0,0,0,0,0,0L59.9,0c0,0,0,0,0,0C55.6,0,51.8,0,50.6,0.1">
      </path>
     </defs>
     <clipPath id="SVGID_11_">
      <use xlink:href="#SVGID_10_" style="overflow:visible;">
      </use>
     </clipPath>
     <radialGradient id="SVGID_12_" cx="-260.1666" cy="-287.4282" r="2.53" gradientTransform="matrix(24.9799 0 0 24.9799 6565.9556 7242.6846)" gradientUnits="userSpaceOnUse">
      <stop offset="0" style="stop-color:#FFDF4F">
      </stop>
      <stop offset="0.1374" style="stop-color:#FFD137">
      </stop>
      <stop offset="0.3217" style="stop-color:#FFC31A">
      </stop>
      <stop offset="0.44" style="stop-color:#FEBE10">
      </stop>
      <stop offset="0.6086" style="stop-color:#FCBA12">
      </stop>
      <stop offset="0.7543" style="stop-color:#F5AF15">
      </stop>
      <stop offset="0.8911" style="stop-color:#ED9F18">
      </stop>
      <stop offset="0.9" style="stop-color:#ED9D19">
      </stop>
      <stop offset="1" style="stop-color:#E0861A">
      </stop>
     </radialGradient>
     <rect x="40.8" y="0" class="st4" width="40.8" height="70.2">
     </rect>
    </g>
   </g>
  </g>
 </g>
</svg>