<svg xmlns="http://www.w3.org/2000/svg" width="144" height="144" fill="none" viewBox="0 0 144 144"><rect width="144" height="144" fill="#fe42b4" rx="48"/><g clip-path="url(#a)"><path fill="#fff" fill-rule="evenodd" d="M49.678 34.305a1.996 1.996 0 0 0-1.994 1.996v11.922c0 1.103.893 1.996 1.994 1.996h50.602c.907 0 1.7-.612 1.93-1.49l3.12-11.922a1.997 1.997 0 0 0-1.93-2.502zm12.668 79.572H49.678a1.995 1.995 0 0 1-1.994-1.996V68.13c0-1.103.893-1.997 1.994-1.997h45.393a1.996 1.996 0 0 1 1.93 2.503l-3.12 11.921a1.995 1.995 0 0 1-1.93 1.491H66.337a1.996 1.996 0 0 0-1.995 1.996v27.837a1.995 1.995 0 0 1-1.995 1.996" clip-rule="evenodd"/></g><defs><clipPath id="a"><path fill="#fff" d="M35.117 30.117h71.196v83.76H35.117z"/></clipPath></defs></svg>