<?xml version="1.0" encoding="UTF-8" standalone="no"?>
<!DOCTYPE svg PUBLIC "-//W3C//DTD SVG 1.1//EN" "http://www.w3.org/Graphics/SVG/1.1/DTD/svg11.dtd">
<!-- Created with Vectornator (http://vectornator.io/) -->
<svg height="100%" stroke-miterlimit="10" style="fill-rule:nonzero;clip-rule:evenodd;stroke-linecap:round;stroke-linejoin:round;" version="1.1" viewBox="0 0 16 16" width="100%" xml:space="preserve" xmlns="http://www.w3.org/2000/svg" xmlns:xlink="http://www.w3.org/1999/xlink">
<defs/>
<clipPath id="ArtboardFrame">
<rect height="16" width="16" x="0" y="0"/>
</clipPath>
<g clip-path="url(#ArtboardFrame)" id="Untitled">
<path d="M0 0L16 0L16 16L0 16L0 0Z" fill="#d2ffd6" fill-rule="nonzero" opacity="1" stroke="none"/>
<g opacity="1">
<path d="M0.153367 6.74784C0.153367 6.74784-0.787794 12.9469 4.64721 12.7402C10.4522 12.5172 12.1611 8.09809 12.0154 6.22902C11.8754 4.43251 6.53547 3.4002 4.37811 3.26634C0.349508 3.02077 0.153367 6.74784 0.153367 6.74784Z" fill="#ffffff" fill-rule="nonzero" opacity="1" stroke="none"/>
<path d="M15.9089 6.34469L11.6207 6.34469C11.1056 6.34469 10.6857 6.75793 10.6857 7.26469C10.6857 7.77146 11.1056 8.1845 11.6207 8.1845L12.1413 8.1845C12.4268 8.1845 12.6564 8.4105 12.6564 8.68592C12.6564 8.96135 12.4268 9.18715 12.1413 9.18715L9.81806 9.18715L9.32533 8.21218C9.39959 8.19158 9.47103 8.16197 9.53808 8.124C9.84446 7.95941 10.0358 7.63996 10.0363 7.29218C10.036 6.76957 9.61285 6.34578 9.09024 6.34469L7.15315 6.34469L6.21258 7.94229L6.19578 7.94229L5.24967 6.34469L2.36687 6.34469L2.36687 9.65536L2.90429 9.65536L2.90429 8.21198L4.27015 8.21198L4.27015 7.73844L2.89875 7.73844L2.89875 6.81843L4.91948 6.81843L5.933 8.48761L5.933 9.65536L6.47041 9.65536L6.47041 8.47654L7.48374 6.81843L9.05129 6.81843C9.30873 6.81843 9.51021 7.02209 9.51021 7.2811C9.51021 7.53458 9.30319 7.74377 9.05129 7.74377L7.9652 7.74377L7.9652 8.21218L8.72643 8.21218L9.44871 9.65556L12.1638 9.65556C12.7068 9.65556 13.1491 9.21463 13.1491 8.68039C13.1491 8.14594 12.7068 7.71075 12.1638 7.71075L11.6488 7.71075C11.3913 7.71075 11.1841 7.51244 11.1841 7.26469C11.1841 7.01675 11.3913 6.81843 11.6488 6.81843L14.0561 6.81843L14.0561 9.65536L14.5935 9.65536L14.5935 6.81843L15.9036 6.81843L15.9036 6.34469L15.9089 6.34469Z" fill="#000000" fill-rule="nonzero" opacity="1" stroke="none"/>
</g>
</g>
</svg>
