<svg xmlns="http://www.w3.org/2000/svg" xml:space="preserve" style="enable-background:new 0 0 340.1 340.1" viewBox="0 0 340.1 340.1"><path d="M272.1 340.1H68c-37.6 0-68-30.4-68-68V68C0 30.4 30.4 0 68 0h204.1c37.6 0 68 30.4 68 68v204.1c0 37.5-30.4 68-68 68z" style="fill:#ff6200"/><path d="M127.1 337.1c-1.1 1.1-2.4 2.1-3.7 3H118c-2.3-6.8-5.2-13.4-8.9-19.6 0 0 20.8-8.3 26.3-8.3 1.4 2.8 2.8 6.9 5.6 9.7-2.8 2.7-11.1 11.1-13.9 15.2zm11.1-176c0-8.3 2.8-8.3 1.4-11.1s-12.5 0-15.2 0c-6.9 1.3-19.4 5.5-19.4 8.3-1.4 4.1-1.4 13.8-1.4 15.2 1.4 4.2 1.4 8.3 2.8 12.5 4.1-4.2 5.5-5.6 8.3-6.9 1.4-1.4 16.6-12.5 18-13.8 2.7-2.9 4.1-1.5 5.5-4.2zM98 237.3v6.9c0 2.8 1.4 18 1.4 22.2 1.4 4.2 1.4 8.3 2.8 12.5 1.4 2.8 2.8 5.5 2.8 8.3 1.8-1 3.2-2.4 4.2-4.2 4.1-4.2 5.5-8.4 8.3-13.9-1.4-9.7-4.2-18-4.2-20.8 0-11.1 1.4-13.9 2.8-20.8-5.7 2.8-12.5 7-18.1 9.8zm79-192.7c1.4 2.8 18 12.5 25 16.6 5.5 4.2 11.1 5.6 16.6 8.3 3.8-5.4 6.6-11.5 8.3-18 4.2 2.8 9.7 2.8 13.9 4.2 0 5.6 0 11.1 1.4 16.6 0 2.8 2.8 1.4 8.3-1.4 8.3-2.8 16.6-4.2 20.8-5.5 9.7-5.5 15.3-16.6 23.5-16.6 7 0 19.4 4.1 22.2 6.9 4.1 1.4 7 2.8 11.1 2.8s7.3-2.9 10.4-5.5c-.5-2.1-1.1-4.2-1.7-6.2-11.1-7.1-23-14-34.9-18.7-8.3 6.9-13.9 12.5-18 12.5s-1.4-8.3-1.4-13.8c-4.2 0-6.9 0-11.1-1.4-2.8 9.7-4.2 22.2-11.1 25-1.7 1-3.6 1.4-5.5 1.4V40.4c0-1.4 5.5-11.1 4.2-12.5 0 0-12.5 2.8-15.3 4.2-1.4 1.4-9.7 5.6-11.1 5.6-1.8-.6-3.7-1.1-5.6-1.4-4.1-2.8-6.9-2.8-11.1-5.5-5.5 16.6-6.9 20.8-6.9 18 0 0-19.4-12.5-26.4-20.8-18 2.8-18 5.6-33.3 11.1-5.6 5.5-13.9 12.5-19.4 20.8-2.8 5.5-5.6 8.3-8.3 13.9l13.8 5.5c3.6-4.4 6.8-9 9.7-13.8 9.8-5.6 26.4-15.4 31.9-20.9zm-13.8 239.8c-1.4-2.8-5.6-4.2-8.3-5.5-2.8 0-5.6 5.5-5.6 11.1.4 5.6 1.3 11.2 2.8 16.6 0 1.4 2.8 2.8 5.5 4.1 4.2 2.8 8.3 4.2 12.5 7 0 0-4.2-12.5-5.5-19.4-1.4-4.2 1.3-9.7-1.4-13.9zm-52.8 29.1s4.2-2.8 4.2-5.6c6.9-8.3 15.3-15.2 16.6-16.6-2.8-6.9-4.2-8.3-8.3-12.5-1.4 1.4-8.3 5.5-9.7 8.3-2.8 1.4-5.5 2.8-6.9 4.1 0 2.8 1.4 4.2 2.8 7 0 2.8 1.3 9.8 1.3 15.3zm26.4-131.7c-13.9 4.2-23.6 6.9-26.4 9.7-6.9 4.2-9.7 7-16.6 11.1 0 8.3 0 8.3 1.4 12.5l1.4 16.6c2.7-4.2 11.1-12.5 15.2-18 6.2-7 13.8-12.6 22.2-16.6 1.4-5.6 2.8-9.7 2.8-15.3zm-19.4-94.2c-2.8 4.1-2.8 8.3-2.8 12.5 0 6.9 1.4 12.5 2.8 20.8-5.6 4.1-8.3 6.9-13.9 9.7 1.4 8.4 2.8 23.6 2.8 23.6 2.8-4.1 2.8-4.1 5.5-7 5.6-4.1 8.3-7 15.2-12.5 1.4-2.8 2.8-1.4 6.9-4.2 1.4-1.4 2.8-2.7 2.8-4.1 0-2.8-1.4-5.6-2.8-8.3s-4.1-9.7-4.1-11.1c0-11.1 1.4-13.8 2.7-23.5-5.4-1.5-12.3-1.5-15.1 4.1zm140 224.5c-5.5 1.4-16.6 2.8-16.6 6.9-1.4 4.1 0 8.3 0 11.1 1.4 2.8 1.4 5.6 1.4 9.7v.2h10.5c2.5-3.5 4.9-6.2 6.2-10 1.3-4-.1-10.9-1.5-17.9zm-52.6-52.6c1.3 5.3 3.1 10.4 5.6 15.2 1.4 0 2.8 2.8 4.1 2.8 2.8-2.8 5.6-6.9 9.7-8.3v5.5c0 4.2 0 7 1.4 11.1 0 4.2 4.2 4.2 9.7 4.2s7-9.7 7-11.1c0 0 1.4 5.5 9.7 9.7 0 0 9.7 0 9.7-1.4 1.4-7 2.8-8.3 1.4-13.9 0 0 8.3 5.6 12.5 11.1 2.7-2.8 5.5-8.3 5.5-9.7 2.7-5.5 2.7-12.5 2.7-18-11.1-6.9-24.9-8.3-38.8-8.3-12.5 0-26.4 1.4-40.2 11.1zm23.5 62.3c-1.4-2.6-4.1-4.2-7-4.1-2.8 0-9.7-4.2-9.7-1.4-7 0-1.4 6.9-1.4 11.1 0 3 4 8.4 7.7 12.7h12.8c-.6-1.9-1-3.8-1.1-5.8-1.3-4.1.1-8.3-1.3-12.5zm73.5-106.7c10.7 0 23 2.5 38.3 8.7v9.3c-15.2-6.1-29.2-7.5-36.9-9.7v11.1c5.5 1.4 8.3 4.2 13.9 5.5 2.1 1 14.2 7.5 23.1 12.4v9.7c-16.8-10.3-28.5-14.3-42.5-20.7-2.8 2.8-4.1 7-8.3 9.7-1.4 1.4-11.1-6.9-16.6-9.7-4.1-2.8-12.5-4.1-18-5.5-1.4 0-1.4-2.8-1.4-4.1-1.4-4.2-2.8-8.3-1.4-9.7 6.9-2.8 9.7-8.3 9.7-12.5s4.1 1.4 8.3 0c2.8-2.8 4.2-5.5 2.8-8.3 0-2.8-1.4-5.5-4.1-5.5a57.13 57.13 0 0 0-43 0c-4.2 1.4-4.2 6.9-2.8 11.1 1.4 5.5 7 2.8 11.1 0 1.4 0-1.4 4.2 1.4 8.3 2.8 5.5 8.3 6.9 8.3 8.3 0 4.2 0 4.2-1.4 6.9 0 2.8 0 5.6-2.8 7-8.3 1.4-15.2 4.1-23.6 6.9-4.1 1.4-8.3 5.6-12.5 5.6-2.8 0-5.5-5.6-6.9-6.9-2.8 0-2.8-1.4-8.3 0-16.2 6.7-32 14.6-47.1 23.6-2.8-2.8-1.4-6.9-2.8-9.7 15.4-9.7 31.7-18 48.5-24.9 1.4-1.4 0-5.5-1.4-8.3 0 0-9.7-1.4-27.7 4.2-11 2.7-23.6 9.7-25 9.7-.9-3.2-1.4-6.4-1.4-9.7 8.5-4.3 17.3-8 26.4-11.1 9.7-2.8 19.4-2.8 29.1-4.2-1.4 0-1.4-2.8-1.4-4.2-4.1-8.3-11.1-15.2-18-22.2-2.8-5.6-5.6-12.5-5.6-15.2 2.8-2.8 5.6 1.4 9.7 1.4-1.7-4.9-2.6-10.1-2.8-15.3-1.4-5.5-1.4-5.5-1.4-12.5 0-8.3 2.8-12.5 1.4-13.9s-7-4.1-8.3-4.1c-2.8-1.4-4.1-1.4-5.5-4.2-4.2-6.9-8.3-12.5-8.3-19.4s2.7-12.5 5.5-19.4c1.4-5.5 8.3-8.3 12.5-11.1s8.3-1.4 12.5-1.4c9.7 0 18 5.5 25 9.7 4.9 3.8 8.4 9.2 9.7 15.3h12.5c6.9 1.4 13.8 2.8 22.2 6.9 9.7-8.3 26.3-9.7 34.7-9.7 0-15.2 11.1-23.6 19.3-23.6 7-1.4 11.1-2.8 20.8 1.4 6.9 4.1 16.6 18 16.6 19.4 2.8 5.6 1.4 12.5 1.4 20.8-.9 3.6-1.4 7.3-1.4 11.1-1.3 5.5-8.3 9.7-12.5 11.1 0 9.7-2.8 15.2-4.2 23.5 0 4.2-1.4 8.3-2.8 12.5 4.1-1.4 5.6-4.1 9.7-4.1-2.8 18-6.9 15.2-11.1 23.6-1.7 6-4.5 11.7-8.3 16.6-2.1 2.1-4.4 3.9-7 5.5-2.7 1.2.1 2.6.1 4zm-115-105.3c2.8-2.8 11.1-8.3 11.1-8.3 1.4 0 1.4-1.4 1.4-2.8-2.7-9.7-5.5-9.7-11.1-12.5-2.8-2-6.2-3-9.7-2.8-5.6 1.4-15.2 4.2-18 12.5 0 1.4-1.4 6.9 2.8 12.4 2.7 5.6 8.3 9.7 11.1 12.5 4 0 5.4-6.9 12.4-11zM215.9 222c-2.8-1.4-5.5-1.4-8.3-1.4-3.3.1-6.5.6-9.7 1.4.7 2.8 1.6 5.6 2.8 8.3 4.1-1.4 5.5-2.7 8.3-4.1-.1 0 5.4-2.8 6.9-4.2zm11-74.8c0-2.8-2.7-5.6-6.9-7h-18c-7 0-12.5 0-19.5 1.4 2.8 5.6 9.7 11.1 12.5 13.9s5.6 5.5 11.1 5.5c5.5-1.4 5.5 0 8.3-1.4 0 2.8 1.4 6.9 0 9.7 0 1.4 1.4 12.5-4.1 13.9-4.1 1.4-9.7 4.2-12.5 8.3s-4.2 11.1 0 13.9c2.8 1.4 5.5-2.8 9.7-4.2s4.1-4.2 5.5-8.3c2.8-2.8 8.3-4.2 9.7-7v-4.2c1.4-12.5 1.4-15.2 2.8-23.6.1-1.2 1.4-9.5 1.4-10.9zm8.3-33.3c0-2.8-5.5-1.4-8.3 0-2.7 0-6.9 2.8-11.1 5.5-4.1 4.2-6.9 5.6-6.9 9.7h6.9c6.9 0 8.3 2.8 11.1-1.4 4.2-5.5 8.3-8.3 8.3-13.8zm58.3-12.5c9.7 2.8 16.6 8.3 23.6 16.6 4.4-.1 8.2-2.8 9.7-6.9 1.4-6.9 2.8-18-1.4-23.6-2.8-2.8-4.2-4.2-11.1-5.6-5.5-1.5-11.3.1-15.3 4.2-2.7 4.2-6.9 9.8-5.5 15.3zm-29.1 18c2.8 0 2.8 5.6 2.8 8.3 7 0 13.9 1.4 16.6-1.4 15.3-7-8.3-12.5-11.1-12.5-6.9-1.4-20.8-5.6-15.2 0-.1 2.9 4.1 2.9 6.9 5.6zM293.5 222c-4.2-1.4-8.3-4.2-16.7-2.8-1.3 1.4-1.3 1.4-1.3 5.5 6.9 0 11.1 4.2 16.6 5.5 0 .1 1.4-6.8 1.4-8.2zm8.3-25c5.5 0-7-5.5-12.5-9.7-1.1-.1-2-.6-2.8-1.4-2.8-2.8-4.2-8.3-9.7-9.7-.7 0-1.3-.6-1.3-1.3v-.1c0-4.1-1.4-20.7-1.4-20.7 2.8 5.5 8.3 5.5 11.1 5.5 5.6 0 9.7-1.4 12.5-5.5 0-1.4 1.4-4.1 2.8-4.1 2.8-1.4 5.6-2.8 7-5.6 1.4 0 2.8-2.8 2.8-2.8-12.5-1.4-38.8-1.4-38.8-1.4-4.2 1.4-8.3 5.6-8.3 7 0 0 2.7 15.2 2.7 16.6 0 9.7 1.4 9.7 1.4 19.4 4.2 2.8 5.5 2.8 8.4 5.6 1.3 2.8 2.7 5.5 4.2 8.3 5.5 2.8 12.5 5.5 16.6 9.7 1.1 0 5.3-6.9 5.3-9.8zm9.7 120.7c-2.8-2.8 2.8-12.5-4.2-12.5-2.8-1.4-11.1-4.2-11.1-4.2-1.4 4.2-1.4 12.5 0 16.6 0 3 3.8 10.6 6.8 15 3.7-1.9 7.2-4.1 10.5-6.6-1-2.6-1.7-5.4-2-8.3zm-113.7-8.3s-1.4-7-2.8-9.7c-1.4-3.4-3.8-6.3-6.9-8.3-1.4 0-4.1-2.8-5.6-1.4 0 0-1.4 11.1-2.8 12.5 2.8 4.2 5.5 7 7 11.1s2.8 9.7 5.5 13.9c1.4-5.7 5.6-8.4 5.6-18.1zm88.3 29.3c-.8-3.5-1.7-7.4-2.3-9.9v-22.2c-5.5 1.4-6.9 2.8-8.3 2.8-4.2 2.8-6.9 4.1-6.9 6.9 0 5.5 1.4 11.1 1.4 13.8 0 4.2 0 7 1.4 8.4 2 .7 3.4 1 4.9 1.5 3.2-.2 6.5-.6 9.8-1.3zm44.8-43.2c-2.8-1.4-2.8-1.4-6.9-1.4-1.4-1.4-4.2-1.4-5.6-1.4 1 4.7 2.4 9.3 4.2 13.8 1.1 2.2 2.7 4 4.7 5.3 2.3-3.2 4.4-6.6 6.1-10.1-1.5-2.6-2.5-5-2.5-6.2z" style="fill:#fff"/></svg>