<svg width="96" height="96" viewBox="0 0 96 96" fill="none" xmlns="http://www.w3.org/2000/svg">
<g clip-path="url(#clip0_3989_34875)">
<path d="M84.0234 0H11.9766C5.36209 0 0 5.36209 0 11.9766V84.0234C0 90.6379 5.36209 96 11.9766 96H84.0234C90.6379 96 96 90.6379 96 84.0234V11.9766C96 5.36209 90.6379 0 84.0234 0Z" fill="url(#paint0_linear_3989_34875)"/>
<path fill-rule="evenodd" clip-rule="evenodd" d="M59.3566 26.8412C61.901 23.7971 65.36 21.8934 69.8487 21.8934H77.3476C77.6562 21.8934 77.9063 22.1436 77.9063 22.452V56.7868C77.9063 65.3666 70.951 72.3219 62.3712 72.3219H54.8723C54.5637 72.3219 54.3136 72.0718 54.3136 71.7632V67.7411C54.3136 67.6131 54.1546 67.5516 54.0668 67.6449C51.3539 70.5298 47.5902 72.3223 43.1641 72.3223H37.0141C36.7057 72.3223 36.4555 72.0722 36.4555 71.7637V67.8624C36.4555 67.7351 36.298 67.6734 36.2099 67.7653C33.506 70.5791 29.786 72.3216 25.4221 72.3216H18.5821C18.2735 72.3216 18.0234 72.0714 18.0234 71.763V48.5679C18.0234 39.9881 24.9787 33.0328 33.5585 33.0328H40.643C42.9993 29.2723 46.9182 26.8412 51.9907 26.8412H59.3566ZM69.8487 27.4794H72.5993V56.7868C72.5993 62.2815 67.8657 66.7357 62.3712 66.7357H59.8998V37.4286C59.8998 31.9339 64.354 27.4794 69.8487 27.4794ZM54.502 32.4274H51.9907C46.496 32.4274 42.0415 36.8816 42.0415 42.3763V66.7361H43.1641C49.2715 66.7361 54.502 61.785 54.502 55.6776V32.4274ZM36.76 38.619H33.5585C28.064 38.619 23.6095 43.0732 23.6095 48.5679V66.7354H25.4221C31.5295 66.7354 36.76 61.7842 36.76 55.6768V38.619Z" fill="url(#paint1_linear_3989_34875)"/>
</g>
<defs>
<linearGradient id="paint0_linear_3989_34875" x1="8.43898" y1="10.7027" x2="79.6886" y2="95.8421" gradientUnits="userSpaceOnUse">
<stop stop-color="#033921"/>
<stop offset="1" stop-color="#002414"/>
</linearGradient>
<linearGradient id="paint1_linear_3989_34875" x1="9.30377" y1="8.01275" x2="68.6052" y2="74.0001" gradientUnits="userSpaceOnUse">
<stop stop-color="#D1FF80"/>
<stop offset="1" stop-color="#B9FF3F"/>
</linearGradient>
<clipPath id="clip0_3989_34875">
<rect width="96" height="96" fill="white"/>
</clipPath>
</defs>
</svg>
