<svg xmlns="http://www.w3.org/2000/svg" xml:space="preserve" stroke-miterlimit="10"
     style="fill-rule:nonzero;clip-rule:evenodd;stroke-linecap:round;stroke-linejoin:round" viewBox="0 0 256 256">
  <path fill="#fd5000" d="M.075.246h256v256h-256Z" style="display:inline"/>
  <path fill="#000120" d="M23 128C23 70.01 70.01 23 128 23s105 47.01 105 105-47.01 105-105 105S23 185.99 23 128Z"
        style="display:inline"/>
  <path fill="#fd5000"
        d="M112.925 111.621c8.921 7.486 1.211 16.431-7.545 7.486-8.755-8.945-1.375-14.972 7.545-7.486zm29.433 28.626c8.921 7.486 1.211 16.431-7.545 7.486-8.755-8.945-1.375-14.972 7.545-7.486zM81.69 71.929c.44 15.703 5.329 15.573 5.329 15.573s-5.768-31.277-5.329-15.573zm99.331 96.968c-15.646 1.418-16.094-3.453-16.094-3.453s31.739 2.036 16.094 3.453z"
        style="display:inline"/>
  <path fill="#fd5000"
        d="m183.438 28.234 12.79 12.79-81.209 81.208-12.79-12.79zm29.118 28.976L225.346 70l-80.72 80.72-12.79-12.79zm30.299 30.289 12.158 12.158-69.617 68.385-20.491-2.594zM153.442 6.79l11.485 2.781L87 87.5l-4.936-19.981L143.47 5.531Z"
        style="display:inline"/>
  <path fill="#fd5000" d="m151.702 4.179 13.225 5.392L87 87.5Z" style="display:inline"/>
  <path fill="#fd5000" d="m151.484 3.526 13.443 6.045L87 87.5Z" style="display:inline"/>
</svg>
