<?xml version="1.0" encoding="utf-8"?>
<!-- Generator: Adobe Illustrator 17.1.0, SVG Export Plug-In . SVG Version: 6.00 Build 0)  -->
<!DOCTYPE svg PUBLIC "-//W3C//DTD SVG 1.1//EN" "http://www.w3.org/Graphics/SVG/1.1/DTD/svg11.dtd">
<svg version="1.1" id="Ebene_1" xmlns="http://www.w3.org/2000/svg" xmlns:xlink="http://www.w3.org/1999/xlink" x="0px" y="0px"
	 viewBox="0 0 378 167" enable-background="new 0 0 378 167" xml:space="preserve">
<g>
	<path fill="#FFCF00" d="M198.766,42.041c0-15.756-7.552-29.747-19.233-38.555c9.819,8.658,16.027,21.407,16.027,35.625
		c0,24.604-18.587,44.81-42.321,47.023v4.085C178.62,88.804,198.766,67.777,198.766,42.041z"/>
</g>
<g>
	<path fill="#FFCF00" d="M140.471,9.575c-7.56,2.449-10.656,6.2-14.839,10.97l-4.162-0.133c4.247-6.308,10.37-12.051,18.173-14.575
		c8.3-2.69,17.139-2.223,24.783,0.82c17.156,6.853,20.422,24.611,20.58,25.389c-0.758-2.53-6.056-12.009-14.422-17.533
		C159.176,6.213,146.803,7.112,140.471,9.575z"/>
	<path fill="#FFCF00" d="M153.145,73.347l0.23,5.363c3.478-0.566,6.874-1.47,10.128-2.798c25.804-12.414,24.379-33.4,24.577-35.898
		C182.052,65.792,160.651,72.538,153.145,73.347z"/>
</g>
<g>
	<path fill="#787B7B" d="M15.525,64.646v23.94H7.683V29.643h31.533c13.043,0,17.995,2.312,17.995,17.419
		c0,15.519-5.449,17.584-20.638,17.584H15.525z M15.525,36.991v20.307h21.71c10.977,0,11.722-1.072,11.722-10.236
		c0-9.493-1.072-10.07-10.567-10.07H15.525z"/>
	<path fill="#787B7B" d="M101.271,71.25H73.367L65.69,88.586h-8.503l26.251-58.943h8.091l26.251,58.943h-9L101.271,71.25z
		 M76.67,63.903H98.05L87.401,38.89L76.67,63.903z"/>
	<path fill="#787B7B" d="M144.887,88.61h-7.759V64.008l-25.591-34.341h9.987l19.484,26.583l19.48-26.583h9.989l-25.59,34.341V88.61z
		"/>
</g>
<g>
	<path fill="#787B7B" d="M1.8,131.924c0-16.757,0.248-30.129,31.04-30.129c19.729,0,26.911,5.282,28.398,20.225h-7.842
		c-1.734-8.666-3.716-12.878-20.555-12.878c-20.555,0-22.784,3.382-22.784,22.781c0,18.164,0.742,22.785,22.784,22.785
		c16.261,0,19.729-4.292,21.05-15.353h7.924c-1.155,16.099-9.163,22.704-28.974,22.704C6.01,162.06,1.8,154.131,1.8,131.924z"/>
	<path fill="#787B7B" d="M76.675,102.456h46.889v7.345H84.435v17.419h37.723v7.349H84.435v19.482h39.788v7.345H76.675V102.456z"/>
	<path fill="#787B7B" d="M183.909,102.456h7.76v58.94h-8.257l-38.469-47.216v47.216h-7.759v-58.94h8.422l38.303,47.219V102.456z"/>
	<path fill="#787B7B" d="M231.956,161.396h-7.763v-51.595H201.99v-7.345h52.17v7.345h-22.204V161.396z"/>
	<path fill="#787B7B" d="M265.225,102.456h46.885v7.345h-39.129v17.419h37.729v7.349h-37.729v19.482h39.789v7.345h-47.546V102.456z"
		/>
	<path fill="#787B7B" d="M368.908,148.763c0-11.886-0.33-12.462-13.538-12.462h-20.967v25.095h-7.761v-58.94h31.783
		c13.863,0,18.242,1.238,18.242,16.347c0,8.009-1.485,11.886-4.625,13.785c3.637,2.475,4.625,7.592,4.625,16.011v12.797h-7.759
		V148.763z M334.403,109.802v19.153h23.858c9.081,0,10.234-0.415,10.234-10.151c0-9.002-1.983-9.002-9.741-9.002H334.403z"/>
</g>
</svg>
