<?xml version="1.0" standalone="no"?>
<!DOCTYPE svg PUBLIC "-//W3C//DTD SVG 20010904//EN"
 "http://www.w3.org/TR/2001/REC-SVG-20010904/DTD/svg10.dtd">
<svg version="1.0" xmlns="http://www.w3.org/2000/svg"
 width="700.000000pt" height="700.000000pt" viewBox="0 0 700.000000 700.000000"
 preserveAspectRatio="xMidYMid meet">
<metadata>
Created by potrace 1.14, written by Peter Selinger 2001-2017
</metadata>
<g transform="translate(0.000000,700.000000) scale(0.100000,-0.100000)"
fill="#000000" stroke="none">
<path d="M1203 6562 l-21 -3 0 -490 c0 -359 3 -489 12 -490 6 0 664 -1 1461
-2 1172 -2 1460 -5 1500 -16 196 -52 329 -129 446 -260 154 -171 221 -384 194
-621 -4 -36 -9 -68 -12 -73 -2 -4 -7 -20 -9 -35 -3 -15 -18 -57 -33 -94 -80
-189 -241 -348 -433 -425 -139 -57 -134 -56 -793 -58 -644 -2 -649 -2 -660
-48 -3 -12 -4 -227 -3 -477 l3 -455 87 -120 c107 -146 79 -108 304 -420 103
-143 199 -276 213 -295 14 -19 35 -48 47 -65 25 -37 438 -610 464 -645 10 -14
174 -241 365 -505 190 -264 353 -491 363 -504 l18 -25 676 0 c673 -1 676 -1
666 19 -6 11 -14 22 -17 25 -4 3 -65 86 -136 185 -133 186 -355 495 -381 530
-8 11 -87 121 -176 245 -208 289 -493 685 -527 730 -14 19 -46 64 -70 99 -24
35 -49 71 -57 80 -8 9 -29 37 -46 63 -18 25 -81 113 -140 195 -237 328 -279
387 -281 396 -2 11 5 12 96 21 314 29 663 177 928 395 284 234 507 584 595
936 4 17 8 35 10 40 6 24 25 124 32 170 9 65 9 351 0 435 -35 315 -174 643
-382 900 -68 83 -199 216 -255 258 -20 15 -42 33 -50 40 -30 28 -167 116 -249
159 -220 115 -453 182 -687 199 -88 7 -3019 12 -3062 6z"/>
<path d="M1182 2745 l0 -2305 22 -1 c11 0 266 -1 565 -1 367 -1 545 3 550 10
3 5 6 1042 5 2304 l0 2293 -571 3 -571 2 0 -2305z"/>
</g>
</svg>
